<!DOCTYPE svg PUBLIC "-//W3C//DTD SVG 1.1//EN" "http://www.w3.org/Graphics/SVG/1.1/DTD/svg11.dtd">
<!-- Uploaded to: SVG Repo, www.svgrepo.com, Transformed by: SVG Repo Mixer Tools -->
<svg width="800px" height="800px" viewBox="-3.6 -3.6 43.20 43.20" xmlns="http://www.w3.org/2000/svg" xmlns:xlink="http://www.w3.org/1999/xlink" aria-hidden="true" role="img" class="iconify iconify--twemoji" preserveAspectRatio="xMidYMid meet" fill="#000000">
<g id="SVGRepo_bgCarrier" stroke-width="0">
<rect x="-3.6" y="-3.6" width="43.20" height="43.20" rx="21.6" fill="#f5f5f5" strokewidth="0"/>
</g>
<g id="SVGRepo_tracerCarrier" stroke-linecap="round" stroke-linejoin="round"/>
<g id="SVGRepo_iconCarrier">
<path fill="#000FFF00" d="M36 32a4 4 0 0 1-4 4H4a4 4 0 0 1-4-4V4a4 4 0 0 1 4-4h28a4 4 0 0 1 4 4v28z"/>
<path fill="#000" d="M15 30.5c-4.687 0-8.5-3.813-8.5-8.5s3.813-8.5 8.5-8.5s8.5 3.813 8.5 8.5s-3.813 8.5-8.5 8.5zm0-14c-3.032 0-5.5 2.468-5.5 5.5s2.468 5.5 5.5 5.5s5.5-2.468 5.5-5.5s-2.468-5.5-5.5-5.5z"/>
<path fill="#000" d="M28.5 7h-8.969a1.5 1.5 0 1 0 0 3h5.348l-7 6.879L20 19l7-6.879V17.5a1.5 1.5 0 0 0 3 0v-9A1.5 1.5 0 0 0 28.5 7z"/>
</g>
</svg>